<?xml version="1.0"?>
<svg class="icon icon-envelope" xmlns="http://www.w3.org/2000/svg" width="128" height="128" viewBox="0 0 128 128">
  <path class="foreground" fill="grey" d="M 65.438456,65.221147 126.86843,26.807809 c 0.70148,-0.500499 1.30276,-1.626623 1.30276,-2.752748 V 12.793822 c 0,-1.000999 -0.70149,-1.876873 -1.50318,-1.876873 H 1.5031805 C 0.70148421,11.042074 0,11.917948 0,12.918948 v 11.261239 c 0,1.000999 0.60127218,2.252247 1.3027564,2.752746 L 62.732731,65.346272 c 0.801696,0.375375 2.00424,0.375375 2.705725,-0.125125 z"/>
  <path class="foreground" fill="grey" d="M 62.7,75.387792 1.3,36.876165 c -0.7,-0.50342 -1.3,0 -1.3,1.00684 v 76.771545 c 0,1.00684 0.7,1.88783 1.5,1.88783 h 125 c 0.8,0 1.5,-0.88099 1.5,-1.88783 V 37.883005 c 0,-1.00684 -0.6,-1.51026 -1.3,-1.00684 L 65.3,75.387792 c -0.7,0.503419 -1.9,0.503419 -2.6,0 z"/>
</svg>
