<?xml version="1.0"?>
<svg class="icon icon-googleplus" xmlns="http://www.w3.org/2000/svg" width="16" height="16" viewBox="0 0 16 16">
  <path class="background" fill="#dd4b39" d="M 0.875,0 C 0.38722,0 0,0.38721 0,0.875 l 0,14.25 C 0,15.61266 0.38715,16 0.875,16 l 14.25,0 C 15.612599,16 16,15.61272 16,15.125 L 16,0.875 C 16,0.38721 15.61266,0 15.125,0 L 0.875,0 z M 7,2.625 l 2.75,0 -0.875,0.5625 -0.875,0 C 8.321898,3.45389 9,4.026288 9,5.09375 9,6.13181 8.400535,6.599676 7.8125,7.0625 7.630007,7.244614 7.4375,7.440648 7.4375,7.75 c 0,0.308085 0.221275,0.497508 0.375,0.625 l 0.5,0.375 c 0.61655,0.519347 1.125127,0.999125 1.125,1.96875 0,1.319658 -1.215831,2.65625 -3.625,2.65625 -2.031636,0 -3.0625,-0.960546 -3.0625,-2 0,-0.505027 0.298329,-1.227157 1.125,-1.71875 C 4.742985,9.122709 5.869257,9.04334 6.5,9 6.303059,8.747424 6.125,8.497317 6.125,8.0625 6.125,7.824118 6.18068,7.66868 6.25,7.5 6.095641,7.51432 5.952665,7.53125 5.8125,7.53125 4.328091,7.53125 3.5,6.438586 3.5,5.34375 3.5,4.698812 3.772771,3.988351 4.375,3.46875 5.174043,2.809111 6.242652,2.625 7,2.625 z M 6,3.15625 c -0.365368,0 -0.775305,0.187659 -1,0.46875 -0.238385,0.295159 -0.3125,0.665249 -0.3125,1.03125 0,0.940097 0.544781,2.5 1.75,2.5 0.350032,0 0.774671,-0.181428 1,-0.40625 C 7.759653,6.425947 7.75,5.971707 7.75,5.71875 7.75,4.707683 7.161876,3.15625 6,3.15625 z m 5.125,2.5625 0.6875,0 0,1.40625 1.4375,0 0,0.71875 -1.4375,0 0,1.40625 -0.6875,0 0,-1.40625 -1.375,0 0,-0.71875 1.375,0 0,-1.40625 z m -4.4375,3.6875 c -0.126225,0 -0.911965,0.020922 -1.5,0.21875 C 4.879161,9.736651 4,10.065881 4,11.0625 c 0,0.996872 0.938771,1.71875 2.4375,1.71875 1.34513,0 2.0625,-0.630746 2.0625,-1.5 0,-0.717809 -0.434567,-1.116764 -1.5,-1.875 -0.111524,-0.01407 -0.172461,0 -0.3125,0 z" />
  <path class="foreground" fill="white" d="m 7.006356,2.6308263 c -0.757348,0 -1.857207,0.184111 -2.65625,0.84375 -0.602229,0.519601 -0.875,1.230062 -0.875,1.875 0,1.094836 0.828091,2.1875 2.3125,2.1875 0.140165,0 0.283141,-0.01693 0.4375,-0.03125 -0.06932,0.16868 -0.125,0.324118 -0.125,0.5625 0,0.434817 0.209309,0.684924 0.40625,0.9375 -0.630743,0.04334 -1.788265,0.122709 -2.65625,0.65625 -0.826671,0.4915927 -1.09375,1.2137227 -1.09375,1.7187497 0,1.039454 0.999614,2 3.03125,2 2.409169,0 3.65625,-1.336592 3.65625,-2.65625 1.27e-4,-0.9696247 -0.5397,-1.4494027 -1.15625,-1.9687497 l -0.5,-0.375 c -0.153725,-0.127492 -0.375,-0.316915 -0.375,-0.625 0,-0.309352 0.223757,-0.505386 0.40625,-0.6875 0.588035,-0.462824 1.15625,-0.93069 1.15625,-1.96875 0,-1.067462 -0.678102,-1.63986 -1,-1.90625 l 0.875,0 0.90625,-0.5625 -2.75,0 z m -1.03125,0.53125 c 1.161876,0 1.78125,1.551433 1.78125,2.5625 0,0.252957 -0.021597,0.707197 -0.34375,1.03125 -0.225329,0.224822 -0.618718,0.40625 -0.96875,0.40625 -1.205219,0 -1.75,-1.559903 -1.75,-2.5 0,-0.366001 0.074115,-0.736091 0.3125,-1.03125 0.224695,-0.281091 0.603382,-0.46875 0.96875,-0.46875 z m 5.125,2.5625 0,1.40625 -1.375,0 0,0.71875 1.375,0 0,1.40625 0.71875,0 0,-1.40625 1.40625,0 0,-0.71875 -1.40625,0 0,-1.40625 -0.71875,0 z m -4.4375,3.6875 c 0.140039,0 0.232226,-0.01407 0.34375,0 1.065433,0.7582357 1.5,1.1571907 1.5,1.8749997 0,0.869254 -0.71737,1.5 -2.0625,1.5 -1.498729,0 -2.4375,-0.721878 -2.4375,-1.71875 0,-0.996619 0.879161,-1.3258487 1.1875,-1.4374997 0.588035,-0.197828 1.342525,-0.21875 1.46875,-0.21875 z"/>
</svg>
