<?xml version="1.0"?>
<svg class="icon icon-rss" xmlns="http://www.w3.org/2000/svg" width="8" height="8" viewBox="0 0 8 8">
  <path class="background" fill="#f28c36" d="M 1.5,0 C 0.669,0 0,0.669 0,1.5 l 0,5 C 0,7.331 0.669,8 1.5,8 l 5,0 C 7.331,8 8,7.331 8,6.5 l 0,-5 C 8,0.669 7.331,0 6.5,0 l -5,0 z M 1,1 A 6,6 0 0 1 7,7 L 6,7 A 5,5 0 0 0 1,2 L 1,1 z M 1,3 A 4,4 0 0 1 5,7 L 4,7 A 3,3 0 0 0 1,4 L 1,3 z M 2,5 C 2.5522847,5 3,5.4477153 3,6 3,6.5522847 2.5522847,7 2,7 1.4477153,7 1,6.5522847 1,6 1,5.4477153 1.4477153,5 2,5 z"/>
  <path class="foreground" fill="white" d="M 1,1 1,2 A 5,5 0 0 1 6,7 L 7,7 A 6,6 0 0 0 1,1 z M 1,3 1,4 A 3,3 0 0 1 4,7 L 5,7 A 4,4 0 0 0 1,3 z M 2,5 C 1.4477153,5 1,5.4477153 1,6 1,6.5522847 1.4477153,7 2,7 2.5522847,7 3,6.5522847 3,6 3,5.4477153 2.5522847,5 2,5 z"/>
</svg>
