<?xml version="1.0"?>
<svg class="icon icon-twitter" xmlns="http://www.w3.org/2000/svg" width="16" height="16" viewBox="0 0 16 16">
  <path class="foreground" fill="#2aa9e0" d="m 16.00026,3.0388625 c -0.58865,0.2610694 -1.22138,0.4374284 -1.88531,0.51677 0.67769,-0.4061557 1.19826,-1.0492863 1.4433,-1.8156882 -0.63433,0.3761626 -1.33682,0.6492191 -2.08459,0.796395 C 12.87493,1.8984774 12.0218,1.5 11.07762,1.5 9.2648,1.5 7.79493,2.9693587 7.79493,4.7817676 c 0,0.2572203 0.029,0.5077321 0.085,0.7479163 C 5.15173,5.3928357 2.73298,4.0862392 1.11391,2.1006705 0.83135,2.5853679 0.66942,3.1490869 0.66942,3.7505572 c 0,1.1386255 0.57953,2.1431321 1.46035,2.7316454 C 1.59168,6.4652065 1.08551,6.3175109 0.64294,6.071728 c -3.7e-4,0.013697 -3.7e-4,0.027394 -3.7e-4,0.04129 0,1.5900606 1.13154,2.9164125 2.63324,3.2181024 C 3.00037,9.4061034 2.71036,9.446214 2.411,9.446214 c -0.21153,0 -0.41713,-0.020595 -0.61761,-0.058886 0.41776,1.303797 1.63002,2.252636 3.06653,2.27903 -1.12346,0.880286 -2.53884,1.404974 -4.07687,1.404974 -0.26496,0 -0.52625,-0.0156 -0.78305,-0.04589 C 1.45274,13.956676 3.17821,14.5 5.032,14.5 c 6.03793,0 9.33982,-5.0007583 9.33982,-9.3377308 0,-0.1422969 -0.003,-0.283784 -0.01,-0.4246313 0.64129,-0.4626226 1.19778,-1.0405783 1.63787,-1.6987554 z"/>
</svg>
